<?xml version="1.0" encoding="UTF-8"?>
<svg xmlns="http://www.w3.org/2000/svg" xmlns:xlink="http://www.w3.org/1999/xlink" width="100" height="100" viewBox="0 0 3829 3829">
<path fill-rule="nonzero" fill="#6D6D6D" fill-opacity="1" d="M 0.746094 0.371094 L 3828.511719 0.371094 C 3828.511719 1276.300781 3828.511719 2552.21875 3828.511719 3828.140625 C 2552.589844 3828.140625 1276.671875 3828.140625 0.746094 3828.140625 C 0.746094 2552.21875 0.746094 1276.300781 0.746094 0.371094 "/>
<path fill-rule="nonzero" fill="rgb(100%, 100%, 100%)" fill-opacity="1" d="M 2442.058594 2681.230469 L 2525.839844 2614.671875 L 2525.839844 2614.660156 C 2525.890625 2614.621094 2525.941406 2614.589844 2525.988281 2614.539062 C 2539.46875 2603.839844 2541.710938 2584.238281 2531 2570.761719 C 2525.859375 2564.289062 2518.359375 2560.121094 2510.148438 2559.179688 C 2501.941406 2558.25 2493.691406 2560.601562 2487.21875 2565.75 L 2403.289062 2632.429688 C 2389.808594 2643.128906 2387.570312 2662.730469 2398.269531 2676.210938 C 2408.980469 2689.691406 2428.578125 2691.929688 2442.058594 2681.230469 Z M 2753.269531 2262.730469 C 2766.039062 2252.578125 2768.171875 2233.988281 2758.019531 2221.210938 C 2753.140625 2215.078125 2746.03125 2211.128906 2738.25 2210.238281 C 2730.460938 2209.339844 2722.640625 2211.578125 2716.5 2216.460938 L 2002.429688 2783.761719 C 1989.640625 2793.910156 1987.519531 2812.5 1997.671875 2825.28125 C 2007.820312 2838.058594 2026.410156 2840.1875 2039.191406 2830.035156 L 2753.058594 2262.898438 C 2753.128906 2262.839844 2753.191406 2262.789062 2753.269531 2262.730469 Z M 1795.828125 1067.121094 C 1808.609375 1056.96875 1810.738281 1038.378906 1800.589844 1025.601562 C 1795.710938 1019.460938 1788.601562 1015.519531 1780.808594 1014.621094 C 1773.019531 1013.730469 1765.199219 1015.96875 1759.070312 1020.839844 L 1044.980469 1588.148438 C 1032.210938 1598.300781 1030.078125 1616.890625 1040.230469 1629.671875 C 1050.378906 1642.441406 1068.96875 1644.578125 1081.75 1634.429688 L 1795.628906 1067.28125 C 1795.699219 1067.230469 1795.761719 1067.179688 1795.828125 1067.121094 Z M 3073.578125 2180.210938 C 3080.019531 2175.101562 3084.878906 2167.890625 3086.988281 2159.28125 L 3105.738281 2082.871094 C 3105.960938 2081.980469 3106.140625 2081.070312 3106.300781 2080.148438 L 3119.480469 2002.589844 C 3119.640625 2001.679688 3119.761719 2000.761719 3119.851562 1999.839844 L 3127.390625 1921.53125 C 3127.480469 1920.609375 3127.53125 1919.679688 3127.558594 1918.75 L 3129.429688 1840.109375 C 3129.449219 1839.179688 3129.441406 1838.25 3129.390625 1837.328125 L 3125.570312 1758.75 C 3125.53125 1757.820312 3125.449219 1756.898438 3125.339844 1755.980469 L 3115.859375 1677.878906 C 3115.738281 1676.960938 3115.601562 1676.050781 3115.421875 1675.140625 L 3100.320312 1597.929688 C 3100.140625 1597.019531 3099.929688 1596.109375 3099.691406 1595.21875 L 3079.050781 1519.308594 C 3078.808594 1518.410156 3078.53125 1517.519531 3078.230469 1516.648438 L 3052.160156 1442.421875 C 3051.851562 1441.550781 3051.519531 1440.679688 3051.140625 1439.839844 L 3019.78125 1367.679688 C 3019.410156 1366.839844 3019.019531 1366 3018.589844 1365.179688 L 2982.101562 1295.480469 C 2981.671875 1294.660156 2981.210938 1293.851562 2980.71875 1293.070312 L 2939.289062 1226.179688 C 2938.800781 1225.398438 2938.28125 1224.628906 2937.738281 1223.871094 L 2891.589844 1160.160156 C 2891.070312 1159.441406 2890.519531 1158.730469 2889.941406 1158.039062 L 2842.769531 1101.679688 C 2842.210938 1101.011719 2841.628906 1100.371094 2841.03125 1099.738281 L 2790.171875 1046.691406 C 2789.570312 1046.058594 2788.949219 1045.460938 2788.308594 1044.871094 L 2733.980469 995.371094 C 2733.339844 994.789062 2732.679688 994.230469 2732 993.691406 L 2674.449219 947.960938 C 2673.769531 947.429688 2673.070312 946.910156 2672.359375 946.421875 L 2611.859375 904.691406 C 2611.140625 904.191406 2610.421875 903.730469 2609.671875 903.289062 L 2546.488281 865.730469 C 2545.75 865.289062 2544.988281 864.871094 2544.21875 864.480469 L 2478.640625 831.269531 C 2477.871094 830.878906 2477.078125 830.519531 2476.289062 830.179688 L 2408.621094 801.46875 C 2407.820312 801.128906 2407.019531 800.820312 2406.199219 800.539062 L 2336.75 776.460938 C 2335.929688 776.179688 2335.109375 775.929688 2334.269531 775.699219 L 2263.359375 756.371094 C 2262.519531 756.140625 2261.679688 755.941406 2260.828125 755.769531 L 2188.769531 741.269531 C 2187.921875 741.101562 2187.070312 740.960938 2186.210938 740.839844 L 2113.339844 731.238281 C 2112.480469 731.121094 2111.621094 731.039062 2110.75 730.980469 L 2072.058594 728.519531 L 2108.050781 701.429688 C 2108.320312 701.230469 2108.589844 701.019531 2108.859375 700.808594 C 2125.128906 687.890625 2128.21875 664.28125 2115.648438 647.578125 C 2102.878906 630.609375 2078.769531 627.210938 2061.789062 639.980469 L 1936.980469 733.921875 C 1936.71875 734.121094 1936.449219 734.328125 1936.191406 734.539062 C 1927.449219 741.480469 1922.140625 751.898438 1921.679688 763.089844 C 1921.21875 774.609375 1925.949219 785.738281 1934.570312 793.398438 L 2045.28125 891.78125 C 2059.460938 904.378906 2080.359375 904.589844 2094.71875 893.179688 C 2096.441406 891.808594 2098.058594 890.28125 2099.570312 888.578125 C 2113.679688 872.699219 2112.25 848.390625 2096.371094 834.289062 L 2063.46875 805.050781 L 2104.570312 807.660156 L 2174.871094 816.929688 L 2244.378906 830.921875 L 2312.789062 849.570312 L 2379.78125 872.789062 L 2445.050781 900.480469 L 2508.308594 932.511719 L 2569.25 968.738281 L 2627.621094 1009 L 2683.128906 1053.101562 L 2735.550781 1100.859375 L 2784.609375 1152.039062 L 2830.089844 1206.371094 L 2874.628906 1267.871094 L 2914.601562 1332.390625 L 2949.800781 1399.621094 L 2980.050781 1469.21875 L 3005.191406 1540.820312 L 3025.101562 1614.058594 L 3039.671875 1688.539062 L 3048.820312 1763.871094 L 3052.5 1839.671875 L 3050.691406 1915.539062 L 3043.421875 1991.078125 L 3030.710938 2065.898438 L 3012.289062 2140.949219 C 3007.230469 2161.578125 3019.851562 2182.410156 3040.46875 2187.460938 C 3052.5 2190.421875 3064.589844 2187.359375 3073.578125 2180.210938 Z M 1282.640625 1310.511719 C 1282.691406 1310.46875 1282.738281 1310.429688 1282.789062 1310.390625 L 1435.089844 1189.390625 C 1444.839844 1181.660156 1446.460938 1167.480469 1438.71875 1157.75 C 1430.980469 1148 1416.808594 1146.378906 1407.070312 1154.121094 L 1254.621094 1275.230469 C 1244.878906 1282.96875 1243.261719 1297.140625 1251 1306.878906 L 1251 1306.890625 C 1258.730469 1316.621094 1272.898438 1318.25 1282.640625 1310.511719 Z M 1498.429688 1139.820312 C 1509.109375 1131.328125 1510.890625 1115.789062 1502.410156 1105.109375 C 1493.921875 1094.429688 1478.390625 1092.648438 1467.699219 1101.140625 C 1457.019531 1109.621094 1455.25 1125.160156 1463.730469 1135.839844 C 1472.21875 1146.519531 1487.75 1148.300781 1498.429688 1139.820312 Z M 1861.761719 3136.90625 C 1870.5 3129.960938 1875.808594 3119.546875 1876.261719 3108.359375 C 1876.730469 3096.835938 1872 3085.710938 1863.378906 3078.050781 L 1752.671875 2979.667969 C 1738.488281 2967.066406 1717.589844 2966.863281 1703.230469 2978.269531 C 1701.511719 2979.636719 1699.878906 2981.167969 1698.378906 2982.867188 C 1684.269531 2998.746094 1685.699219 3023.054688 1701.570312 3037.160156 L 1734.46875 3066.394531 L 1693.371094 3063.78125 L 1623.078125 3054.515625 L 1553.570312 3040.53125 L 1485.160156 3021.882812 L 1418.171875 2998.660156 L 1352.890625 2970.972656 L 1289.640625 2938.941406 L 1228.691406 2902.714844 L 1170.328125 2862.453125 L 1114.808594 2818.351562 L 1062.398438 2770.601562 L 1013.328125 2719.421875 L 967.855469 2665.078125 L 923.308594 2603.589844 L 883.34375 2539.070312 L 848.144531 2471.839844 L 817.894531 2402.238281 L 792.746094 2330.628906 L 772.839844 2257.398438 L 758.273438 2182.921875 L 749.125 2107.589844 L 745.441406 2031.789062 L 747.242188 1955.921875 L 754.519531 1880.371094 L 767.230469 1805.558594 L 785.648438 1730.5 C 790.710938 1709.871094 778.089844 1689.050781 757.460938 1683.988281 C 745.4375 1681.039062 733.347656 1684.089844 724.351562 1691.238281 C 717.914062 1696.359375 713.058594 1703.570312 710.945312 1712.171875 L 692.199219 1788.578125 C 691.976562 1789.480469 691.789062 1790.390625 691.632812 1791.300781 L 678.453125 1868.859375 C 678.300781 1869.769531 678.175781 1870.691406 678.089844 1871.621094 L 670.546875 1949.929688 C 670.457031 1950.851562 670.402344 1951.769531 670.378906 1952.699219 L 668.511719 2031.351562 C 668.488281 2032.28125 668.5 2033.199219 668.546875 2034.128906 L 672.363281 2112.710938 C 672.410156 2113.628906 672.488281 2114.558594 672.601562 2115.480469 L 682.085938 2193.570312 C 682.195312 2194.5 682.339844 2195.410156 682.519531 2196.320312 L 697.621094 2273.53125 C 697.796875 2274.441406 698.007812 2275.339844 698.25 2276.238281 L 718.890625 2352.148438 C 719.132812 2353.050781 719.40625 2353.929688 719.714844 2354.808594 L 745.78125 2429.039062 C 746.089844 2429.910156 746.425781 2430.769531 746.796875 2431.621094 L 778.15625 2503.769531 C 778.527344 2504.621094 778.925781 2505.460938 779.359375 2506.28125 L 815.847656 2575.980469 C 816.277344 2576.800781 816.738281 2577.601562 817.226562 2578.390625 L 858.652344 2645.269531 C 859.140625 2646.058594 859.660156 2646.828125 860.203125 2647.578125 L 906.355469 2711.289062 C 906.878906 2712.019531 907.429688 2712.71875 908.007812 2713.410156 L 955.175781 2769.78125 C 955.734375 2770.441406 956.3125 2771.089844 956.910156 2771.710938 L 1007.78125 2824.769531 C 1008.378906 2825.398438 1009 2826 1009.640625 2826.578125 L 1063.96875 2876.082031 C 1064.609375 2876.664062 1065.269531 2877.226562 1065.949219 2877.765625 L 1123.5 2923.488281 C 1124.179688 2924.027344 1124.871094 2924.542969 1125.589844 2925.03125 L 1186.089844 2966.765625 C 1186.800781 2967.257812 1187.53125 2967.726562 1188.269531 2968.167969 L 1251.460938 3005.722656 C 1252.199219 3006.164062 1252.960938 3006.582031 1253.730469 3006.972656 L 1319.308594 3040.179688 C 1320.078125 3040.570312 1320.859375 3040.933594 1321.660156 3041.273438 L 1389.328125 3069.976562 C 1390.128906 3070.316406 1390.929688 3070.625 1391.75 3070.910156 L 1461.199219 3094.980469 C 1462.019531 3095.265625 1462.839844 3095.519531 1463.679688 3095.75 L 1534.589844 3115.078125 C 1535.429688 3115.308594 1536.269531 3115.507812 1537.121094 3115.675781 L 1609.179688 3130.179688 C 1610.019531 3130.347656 1610.878906 3130.492188 1611.738281 3130.605469 L 1684.609375 3140.207031 C 1685.46875 3140.320312 1686.328125 3140.40625 1687.191406 3140.460938 L 1725.890625 3142.921875 L 1689.890625 3170.011719 C 1689.621094 3170.21875 1689.351562 3170.425781 1689.089844 3170.636719 C 1672.820312 3183.558594 1669.730469 3207.167969 1682.300781 3223.867188 C 1695.070312 3240.835938 1719.179688 3244.238281 1736.148438 3231.464844 L 1860.960938 3137.523438 C 1861.230469 3137.320312 1861.5 3137.117188 1861.761719 3136.90625 Z M 2204.351562 2980.386719 C 2165.488281 3009.484375 2145.96875 3021.027344 2119.558594 3008.734375 C 2081.460938 2990.988281 2029.609375 2928.855469 1969.371094 2855.070312 L 1969.378906 2855.066406 L 1523.320312 2293.609375 L 1023.390625 1664.328125 C 965.441406 1591.171875 917.261719 1528.859375 908.644531 1487.960938 C 902.480469 1458.710938 918.910156 1440.300781 955.242188 1407.019531 L 955.25 1407.019531 L 1604.039062 891.589844 L 1604.078125 891.550781 L 1604.320312 891.359375 L 1604.558594 891.171875 L 1604.558594 891.179688 C 1605.890625 890.109375 1607.03125 889.199219 1608.339844 888.160156 C 1644.820312 859.179688 1663.488281 849.109375 1687.949219 860.5 C 1725.859375 878.148438 1777.859375 941.46875 1838.378906 1016.859375 L 2784.628906 2207.941406 C 2843.71875 2282.839844 2892.980469 2346.789062 2901.609375 2387.691406 C 2907.570312 2416.019531 2891.519531 2432.820312 2853.339844 2464.800781 L 2204.359375 2980.382812 Z M 2894.371094 2515.800781 C 2894.511719 2515.679688 2894.648438 2515.570312 2894.789062 2515.460938 C 2894.910156 2515.359375 2895.019531 2515.269531 2895.140625 2515.171875 C 2926.980469 2488.53125 2980.910156 2446.570312 2965.660156 2374.191406 C 2953.03125 2314.25 2889.578125 2235.300781 2835.960938 2167.308594 C 2835.929688 2167.28125 2835.910156 2167.25 2835.878906 2167.21875 L 1889.628906 976.140625 C 1889.601562 976.101562 1889.558594 976.058594 1889.53125 976.011719 C 1834.570312 907.550781 1771.089844 827.011719 1715.578125 801.160156 C 1650.96875 771.070312 1600.640625 810.671875 1568.539062 836.179688 L 1567.628906 836.910156 C 1566.269531 837.988281 1565.089844 838.921875 1563.75 839.980469 L 1563.75 839.988281 L 1563.511719 840.179688 L 1563.269531 840.371094 L 1563.320312 840.339844 L 913.632812 1356.480469 C 913.039062 1356.949219 912.464844 1357.441406 911.90625 1357.949219 C 880.820312 1386.371094 829.546875 1430.070312 844.59375 1501.460938 C 857.226562 1561.421875 919.542969 1638.640625 972.101562 1705.011719 L 972.132812 1705.050781 L 1472.070312 2334.328125 L 1918.390625 2896.125 C 1918.480469 2896.238281 1918.570312 2896.351562 1918.660156 2896.464844 C 1973.429688 2963.558594 2036.589844 3042.304688 2091.929688 3068.074219 C 2158.878906 3099.25 2211.199219 3057.050781 2243.96875 3032.492188 C 2244.21875 3032.308594 2244.460938 3032.117188 2244.699219 3031.925781 L 2894.269531 2515.871094 C 2894.308594 2515.851562 2894.339844 2515.820312 2894.371094 2515.800781 Z M 2894.371094 2515.800781 "/>
</svg>
